<?xml version="1.0" encoding="UTF-8"?><svg id="Layer_1" xmlns="http://www.w3.org/2000/svg" viewBox="0 0 404.54 41.34"><defs><style>.cls-1{fill:#ec691a;}.cls-2{fill:#fff;}</style></defs><rect class="cls-2" x="229.07" y="7.73" width="5.4" height="25.86"/><path class="cls-2" d="m160.66,13.17l6.47,10.82h-12.94l6.47-10.82Zm-2.85-5.43l-15.53,25.86h6.19l2.89-4.87h18.59l2.89,4.87h6.19l-15.53-25.86h-5.7Z"/><polygon class="cls-2" points="253.83 7.74 234.62 20.65 253.89 33.6 263.11 33.6 243.84 20.65 263.05 7.74 253.83 7.74"/><polygon class="cls-2" points="307.67 7.73 293.99 27.12 280.33 7.73 273.32 7.73 273.32 33.6 278.73 33.6 278.73 14.59 292.06 33.6 295.93 33.6 309.26 14.59 309.26 33.6 314.67 33.6 314.67 7.73 307.67 7.73"/><path class="cls-2" d="m343.07,13.17l6.47,10.82h-12.94l6.47-10.82Zm-2.85-5.43l-15.53,25.86h6.19l2.9-4.87h18.59l2.89,4.87h6.19l-15.53-25.86h-5.7Z"/><polygon class="cls-2" points="399.13 7.74 399.13 27.5 378.3 7.74 371.55 7.74 371.55 33.6 376.96 33.6 376.96 13.83 397.81 33.6 404.54 33.6 404.54 7.74 399.13 7.74"/><polygon class="cls-2" points="61.74 7.72 61.74 12.46 74.21 12.46 74.21 33.58 79.62 33.58 79.62 12.46 90.69 12.46 93.51 7.72 61.74 7.72"/><path class="cls-2" d="m212.38,25.66c-.56,1.89-2.32,3.23-4.29,3.23h-11.65c-2.15,0-3.99-1.32-4.39-3.61-.54-3.14-.6-6.19-.03-9.11.45-2.29,2.27-3.78,4.42-3.78s11.65.01,11.65.01c2.01,0,3.75,1.31,4.29,3.19l4.59-3.09c-1.3-2.53-4.07-4.8-8.06-4.8h-13.47c-4.38,0-7.52,3.06-8.54,6.4-1.06,3.49-1.01,9.63-.03,12.94,1.06,3.55,4.07,6.51,8.57,6.51h13.46c4.02,0,6.77-2.28,8.07-4.82l-4.6-3.1Z"/><path class="cls-2" d="m124.76,20.66h-15.73v-8.27h15.73c2.24,0,4.05,1.8,4.12,4.14-.07,2.36-1.88,4.14-4.12,4.14m8.98-4.14c0-5.08-3.69-8.78-8.22-8.78h-21.9v25.84h5.41v-8.32h13.58l4.96,8.34h6.18l-5.34-8.89c3.11-1.23,5.34-4.36,5.34-8.19"/><path class="cls-1" d="m38.15,0c1.76,0,3.19,1.43,3.19,3.19v34.96c0,1.76-1.43,3.19-3.19,3.19h-21.7c-.31,0-.55-.27-.52-.58C17.88,24.13,26.74,6.52,32.61.06,32.65.02,32.7,0,32.76,0h5.39Z"/><path class="cls-1" d="m3.19,0h26.4c.07,0,.1.08.05.12C18.7,9.28,10.11,27.98,6.52,40.83c-.09.3-.36.52-.68.52h-2.65c-1.76,0-3.19-1.43-3.19-3.19V3.19C0,1.43,1.43,0,3.19,0Z"/></svg>