<?xml version="1.0" encoding="utf-8"?>
<!-- Generator: Adobe Illustrator 28.3.0, SVG Export Plug-In . SVG Version: 6.00 Build 0)  -->
<svg version="1.1" id="Layer_1" xmlns="http://www.w3.org/2000/svg" xmlns:xlink="http://www.w3.org/1999/xlink" x="0px" y="0px"
	 viewBox="0 0 800 173.3" style="enable-background:new 0 0 800 173.3;" xml:space="preserve">
<style type="text/css">
	.st0{fill-rule:evenodd;clip-rule:evenodd;}
</style>
<path class="st0" d="M336.5,145l11.6-105.7c0.3-2.4,2.3-4.2,4.7-4.2h11.6c2.4,0,4.4-1.8,4.7-4.2l1-8.8c0.1-1.3-0.3-2.7-1.2-3.7
	c-0.9-1-2.2-1.6-3.5-1.6h-60.1c-2.4,0-4.4,1.8-4.7,4.2l-1,8.8c-0.1,1.3,0.3,2.7,1.2,3.7c0.9,1,2.2,1.6,3.5,1.6h10.2
	c1.3,0,2.6,0.6,3.5,1.6c0.9,1,1.3,2.3,1.2,3.7L307.9,144c-0.1,1.3,0.3,2.7,1.2,3.7c0.9,1,2.2,1.6,3.5,1.6h19.2
	C334.2,149.2,336.2,147.4,336.5,145L336.5,145z M202.8,135c17.1-5.8,33.1-13.6,45.7-27.1c16-17.2,16.1-38.3,0.4-55.8
	c-8.9-9.8-19.8-16.7-31.8-22c-28.3-12.3-58-16.5-88.6-15.4c-21.5,0.7-42.4,4.1-62.6,11.5c-15.1,5.5-29.1,12.9-40.4,24.6
	C8.6,68.3,8.3,90.1,24.8,108c6.3,6.9,13.8,12.3,22,16.8c27.9,15.1,58.2,19.7,88.6,20.5C158.8,144.9,181.2,142.3,202.8,135L202.8,135
	z M135.3,155.8c-22-0.5-44-3.2-65.1-9.8c-10.1-3.2-20-7.3-29.3-12.4c-3.1-1.7-6.1-3.6-9-5.6c-3-2.1-5.9-4.3-8.6-6.7
	c-2.9-2.5-5.6-5.2-8.1-8.1C9.3,106.1,4.8,97.7,3,88.7c-1.7-8.6-0.8-17.8,2.4-26C7,58.4,9.3,54.3,12,50.6c3.1-4.3,6.8-8.2,10.7-11.7
	c9-8,19.6-14.2,30.6-19c13.2-5.8,27.2-9.7,41.4-12.2c16.8-3,34-4.1,51.1-3.5C167.7,5,189.4,8.7,210,16c11.4,4.1,22.4,9.2,32.2,16.3
	c4.1,2.9,8,6.2,11.6,9.8c3.4,3.4,6.4,7,9,11c4.7,7.4,7.8,16,8.2,24.7c0.4,8.6-1.9,17.4-6,25c-2.2,4-4.9,7.8-8,11.2
	c-4.5,5-9.6,9.5-15.1,13.3c-10.9,7.7-23.2,13.3-35.8,17.6C183.4,152.6,159.3,155.4,135.3,155.8L135.3,155.8z M179.4,123.8
	c-9.8,3.2-20.8,5.4-33,6.4c-4.7,0.4-9.5,0.5-14.2,0.5c-17.4-0.3-34.7-4-52-10.8c-1.3-0.5-2.7-1.1-4-1.7c-9.3-4-15.5-9.4-18.8-16.3
	c-2.1-4.4-2.5-8.8-1.3-13.4c2.1-8,8.2-14.2,18.3-18.7c2-0.9,3.9-1.6,5.8-2.4c11.1-4.1,21.7-5.8,31.6-4.9c4.4,0.4,8.7,0.3,13.1-0.3
	c3.4-0.5,5.7-2,6.9-4.6c1.7-3.6,0.4-8.1-3.9-13.4c-4.3-5.3-10.5-9.9-18.7-13.9c29.5,6.7,52.9,13.8,70.3,21.3
	c24.9,11.1,37.7,22.8,38.3,35.2c0.6,11.9-7,22.1-22.7,30.4C190.2,119.7,185,121.9,179.4,123.8L179.4,123.8z M389.6,87.6l2-18
	c0.1-1.3-0.2-2.7-0.9-3.7c-0.7-1-1.9-1.6-3.1-1.6h-1.2c-1.2,0-2.6,0.4-3.6,1.2c-1,0.8-1.7,2-1.8,3l-2,18.5c-0.1,0.7,0.1,1.3,0.6,1.8
	c0.4,0.5,1.1,0.8,1.8,0.8h6C388.4,89.7,389.5,88.8,389.6,87.6L389.6,87.6z M375.3,130.9c0.7,0.9,1.5,1.4,2.6,1.5c0.2,0,0.7,0,1.5,0
	c0.6,0,1.1,0,1.5-0.1c1.2-0.3,2.1-0.8,2.8-1.5c0.7-0.8,1.2-1.6,1.3-2.6c0.3-2.7,0.6-5.3,0.9-8c0.1-1.3,0.3-2.6,0.4-4
	c0.1-0.7,0.1-1.3,0.2-2c0-0.3,0.1-0.6,0.2-0.9c0.1-0.3,0.3-0.6,0.5-0.9c0.4-0.6,1-1,1.6-1.3c0.6-0.3,1.2-0.3,1.9-0.3
	c1.3,0,2.7,0,4,0c2.7,0,5.3,0,8,0c1.3,0,2.7,0,4,0c0.7,0,1.3,0,2,0.2c0.6,0.2,1.2,0.6,1.7,1c0.4,0.5,0.8,1.1,0.9,1.7
	c0.2,0.7,0.1,1.3,0,2c-0.1,1.3-0.3,2.7-0.4,4c-0.3,2.7-0.6,5.3-0.9,8c-0.1,1.3-0.3,2.5-0.6,3.8c-0.3,1.2-0.7,2.5-1.2,3.7
	c-1,2.5-2.6,4.8-4.5,6.8c-1.9,2-4.2,3.7-6.7,4.9c-2.5,1.2-5.1,1.9-7.6,2.1c-0.6,0.1-1.2,0.1-1.9,0.1c-0.6,0-1.3,0-2,0
	c-1.3,0-2.7,0-4,0c-2.7,0-5.3,0-8,0c-0.3,0-0.7,0-1,0c-0.2,0-0.3,0-0.5,0c-0.2,0-0.4,0-0.6,0c-0.8,0-1.6,0-2.4-0.1
	c-1.6-0.1-3.1-0.3-4.6-0.6c-2.9-0.6-5.5-1.5-7.7-2.7c-2.1-1.2-3.8-2.7-5-4.4c-1.2-1.9-2.1-4.5-2.5-7.5c-0.4-3-0.3-6.5,0.3-9.9
	c1.2-10.5,2.3-21,3.5-31.5c0.6-5.2,1.2-10.5,1.7-15.7c0.3-2.6,0.6-5.2,0.9-7.9c0.1-0.7,0.1-1.2,0.3-1.8c0.1-0.6,0.2-1.2,0.4-1.8
	c0.3-1.2,0.8-2.5,1.3-3.7c1.1-2.4,2.7-4.7,4.6-6.7c2-1.9,4.3-3.5,6.7-4.6c2.5-1.1,5-1.7,7.5-1.9c0.3,0,0.6,0,0.9-0.1
	c0.3,0,0.6,0,0.9,0c0.7,0,1.3,0,2,0c1.3,0,2.6,0,4,0c2.6,0,5.3,0,7.9,0c0.3,0,0.7,0,1,0c0.3,0,0.8,0,1.2,0c0.8,0,1.6,0.1,2.4,0.1
	c1.6,0.1,3.1,0.3,4.5,0.6c2.9,0.6,5.5,1.5,7.6,2.7c2.1,1.2,3.8,2.7,4.9,4.4c1.2,1.9,2.1,4.5,2.5,7.5c0.4,3,0.3,6.5-0.3,9.9
	c-0.5,4.6-1,9.1-1.5,13.7c-0.3,2.3-0.5,4.6-0.8,6.9c-0.1,1.1-0.3,2.3-0.4,3.4c-0.1,0.6-0.1,1.1-0.3,1.7c-0.2,0.5-0.5,1.1-0.9,1.5
	c-0.4,0.4-1,0.7-1.5,0.9c-0.5,0.2-1.1,0.2-1.7,0.2c-1.1,0-2.3,0-3.4,0c-2.3,0-4.6,0-6.9,0c-4.6,0-9.2,0-13.8,0
	c-1,0.1-1.8,0.2-2.3,0.3c-0.7,0.2-1.4,0.5-2.1,0.9c-0.9,0.5-1.7,1.2-2.3,2c-0.8,1.1-1.4,2.2-1.6,3.4c-0.1,0.4-0.2,1.7-0.5,3.8
	c-0.6,5.1-1.1,10.1-1.7,15.2C374.3,128.6,374.6,129.9,375.3,130.9L375.3,130.9z M441.7,113.2l-1.6,14.5c-0.1,1.3,0.2,2.7,0.9,3.7
	c0.7,1,1.9,1.6,3.1,1.6h1.2c1.2,0,2.6-0.4,3.6-1.2c1-0.8,1.7-2,1.8-3l2.8-26l-6.4,2.9C444.1,107,442,109.8,441.7,113.2L441.7,113.2z
	 M453.2,64.8c1.3,0,2.5,0.5,3.3,1.4c0.9,0.9,1.4,2.1,1.4,3.3l0,3.4c0,8.5-5.1,16.3-12.9,19.6l-15.8,6.7c-6.9,2.9-11.7,9.3-12.7,16.7
	l-2.5,18c-0.3,1.9-0.1,3.7,0.6,5.6c0.6,1.8,1.6,3.5,3.1,4.9c1.6,1.4,3.4,2.5,5.4,3.4c1.9,0.8,3.9,1.2,5.8,1.2h3.8
	c5.2,0.1,10.3-1.1,14.8-3.6c1.4-0.8,3.1-0.8,4.5,0c4.5,2.5,9.6,3.7,14.8,3.6h4.7c1.2,0,2.2-0.9,2.4-2.1l8.1-73.6
	c0.5-3.4,0.7-6.8,0.3-9.9c-0.4-3-1.3-5.6-2.5-7.5c-1.6-2.4-4.3-4.4-7.9-5.8c-3.5-1.4-7.9-2-12.5-2h-13.1c-11.6,0-21.3,8.7-22.6,20.3
	l-0.5,4.8c-0.1,1.1,0.2,2.1,0.9,2.9c0.7,0.8,1.7,1.3,2.8,1.3h15.4c1.9,0,3.6-1.5,3.8-3.4l0.6-5c0.2-1.2,0.8-2.2,1.8-3
	c1-0.8,2.2-1.2,3.6-1.2H453.2L453.2,64.8z M510.9,48.2c1.1,0,2.1,0.5,2.8,1.3c0.7,0.8,1.1,1.9,0.9,3l-0.6,5c2.9-2.7,6-4.8,9.4-6.3
	c1.7-0.7,3.5-1.3,5.3-1.7c0.5-0.1,0.9-0.2,1.4-0.3c0.5-0.1,1,0,1.4,0.2c0.5,0.2,0.8,0.5,1.1,1c0.2,0.4,0.3,1,0.3,1.4l-2.3,21.3
	c-0.2,1.9-1.7,3.3-3.6,3.4l-6.6,0.3c-3.7,0.2-6.7,3-7.2,6.7l-6.9,62.4c-0.2,1.8-1.7,3.2-3.5,3.2h-18.6c-1,0-2-0.4-2.6-1.2
	c-0.7-0.8-1-1.8-0.9-2.8L491,51.6c0.2-1.9,1.8-3.4,3.8-3.4H510.9L510.9,48.2z M580.9,35.1c-1.2,0-2.6,0.4-3.6,1.2
	c-1,0.8-1.7,2-1.8,3c-2.1,19.5-5.5,47.9-10,85.2c-0.1,1.3,0.2,2.7,0.9,3.7c0.7,1,1.9,1.6,3.1,1.6h1.2c1.4,0,2.6-0.4,3.6-1.2
	c1-0.8,1.6-1.8,1.8-3c4.5-37.3,7.9-65.7,10-85.2c0.1-1.4-0.2-2.7-0.9-3.7c-0.7-1-1.9-1.6-3.1-1.6H580.9L580.9,35.1z M548.1,20.4
	c0.2-1.9,1.8-3.4,3.8-3.4h40.2c4.6,0,9,0.7,12.5,2c3.6,1.4,6.2,3.4,7.9,5.8c0.6,1,1.1,2,1.5,3.1c0.4,1.1,0.7,2.2,0.8,3.3
	c0.2,1.1,0.3,2.3,0.4,3.4c0.1,1.1,0,2.3,0,3.4c0,0.3,0,0.7-0.1,1c0,0.3-0.1,0.7-0.1,1c0,0.3-0.1,0.7-0.1,1c0,0.3-0.1,0.7-0.2,1
	l-9.5,86.6c-1.3,11.5-11,20.3-22.6,20.3h-44.4c-1.1,0-2.1-0.5-2.8-1.3c-0.7-0.8-1.1-1.9-0.9-2.9L548.1,20.4L548.1,20.4z M640.4,48.2
	h-16.1c-1.9,0-3.6,1.5-3.8,3.4l-10.3,93.6c-0.1,1,0.2,2,0.9,2.8c0.7,0.8,1.6,1.2,2.6,1.2h18.6c1.8,0,3.3-1.4,3.5-3.2l6.9-62.4
	c0.4-3.7,3.4-6.6,7.2-6.7l6.6-0.3c1.9-0.1,3.4-1.5,3.6-3.4l2.3-21.3c0.1-0.5,0-1-0.3-1.4c-0.2-0.4-0.6-0.8-1.1-1
	c-0.5-0.2-1-0.3-1.4-0.2c-0.5,0.1-0.9,0.2-1.4,0.3c-1.8,0.4-3.6,1-5.3,1.7c-3.4,1.5-6.6,3.5-9.4,6.3l0.6-5c0.1-1.1-0.2-2.2-0.9-3
	C642.5,48.7,641.4,48.2,640.4,48.2L640.4,48.2z M696.9,64.4c-1.2,0-2.6,0.4-3.6,1.2c-1,0.8-1.7,2-1.8,3l-6.4,58.6
	c-0.1,1.3,0.2,2.7,0.9,3.7c0.7,1,1.9,1.6,3.1,1.6h1.2c1.4,0,2.6-0.4,3.6-1.2c1-0.8,1.6-1.8,1.8-3l6.4-58.6c0.1-1.3-0.2-2.7-0.9-3.7
	c-0.7-1-1.9-1.6-3.1-1.6H696.9L696.9,64.4z M720.5,128.8c-1.3,11.5-11,20.3-22.6,20.3h-15c-4.6,0-9-0.7-12.5-2
	c-3.5-1.4-6.2-3.4-7.9-5.8c-1.2-1.9-2.1-4.5-2.5-7.5c-0.4-3-0.3-6.5,0.3-9.9l6.1-55.5c1.3-11.5,11-20.3,22.6-20.3h15
	c4.6,0,9,0.7,12.5,2c3.6,1.4,6.2,3.4,7.9,5.8c1.2,1.9,2.1,4.5,2.5,7.5c0.4,3,0.3,6.5-0.3,9.9L720.5,128.8L720.5,128.8z M764.9,64.4
	c-1.2,0-2.6,0.4-3.6,1.2c-1,0.8-1.7,2-1.8,3l-6.4,58.6c-0.1,1.3,0.2,2.7,0.9,3.7c0.7,1,1.9,1.6,3.1,1.6h1.2c1.4,0,2.6-0.4,3.6-1.2
	c1-0.8,1.6-1.8,1.8-3l6.4-58.6c0.1-1.3-0.2-2.7-0.9-3.7c-0.7-1-1.9-1.6-3.1-1.6H764.9L764.9,64.4z M765,49.3l-3.4,2.5
	c-0.8,0.6-2,0.6-2.8,0l-4-2.7c-0.8-0.6-1.7-0.9-2.7-0.9h-11.9c-1.9,0-3.6,1.5-3.8,3.4l-12.2,110.9c-0.1,1.1,0.2,2.1,0.9,2.9
	c0.7,0.8,1.7,1.3,2.8,1.3h18.5c1.9,0,3.6-1.5,3.8-3.4l1-10.6c0.1-2,1.8-3.6,3.8-3.6h11c11.6,0,21.3-8.7,22.6-20.3l6.1-55.5
	c0.5-3.4,0.7-6.8,0.3-9.9c-0.4-3-1.3-5.6-2.5-7.5c-1.6-2.4-4.3-4.4-7.9-5.8c-3.5-1.4-7.9-2-12.5-2l-4.6,0.2
	C766.7,48.4,765.7,48.7,765,49.3z"/>
</svg>
